<svg xmlns="http://www.w3.org/2000/svg" width="67.637" height="67.637" fill="#000" fill-rule="evenodd" clip-rule="evenodd" image-rendering="optimizeQuality" shape-rendering="geometricPrecision" text-rendering="geometricPrecision" viewBox="0 0 1778.69 1778.68"><path fill-rule="nonzero" d="M1254.85 558.21c28.97,-28.97 75.96,-28.97 104.93,0 28.97,28.98 28.97,75.97 0,104.94l-557.28 557.3c-28.98,28.97 -75.97,28.97 -104.94,0l-278.65 -278.65c-28.97,-28.97 -28.97,-75.96 0,-104.93 28.98,-28.98 75.97,-28.98 104.94,0l226.18 226.18 504.82 -504.84zm-365.51 -558.21c245.55,0 467.91,99.56 628.85,260.5 160.94,160.93 260.5,383.3 260.5,628.84 0,245.58 -99.55,467.91 -260.5,628.85 -160.94,160.94 -383.3,260.5 -628.85,260.5 -245.57,0 -467.91,-99.55 -628.84,-260.5 -160.96,-160.94 -260.5,-383.27 -260.5,-628.85 0,-245.54 99.56,-467.91 260.5,-628.84 160.93,-160.96 383.27,-260.5 628.84,-260.5zm523.92 365.43c-134.07,-134.06 -319.31,-216.99 -523.92,-216.99 -204.62,0 -389.86,82.93 -523.91,216.99 -134.06,134.06 -216.99,319.31 -216.99,523.91 0,204.63 82.93,389.87 216.99,523.92 134.05,134.06 319.29,216.98 523.91,216.98 204.61,0 389.85,-82.92 523.92,-216.98 134.06,-134.05 216.98,-319.29 216.98,-523.92 0,-204.6 -82.92,-389.85 -216.98,-523.91z"/></svg>